<?xml version="1.0" encoding="UTF-8" standalone="no"?>
<svg
   xmlns:dc="http://purl.org/dc/elements/1.1/"
   xmlns:cc="http://creativecommons.org/ns#"
   xmlns:rdf="http://www.w3.org/1999/02/22-rdf-syntax-ns#"
   xmlns:svg="http://www.w3.org/2000/svg"
   xmlns="http://www.w3.org/2000/svg"
   id="svg8"
   version="1.1"
   viewBox="0 0 16.933333 16.933334"
   height="64"
   width="64">
  <defs
     id="defs2" />
  <metadata
     id="metadata5">
    <rdf:RDF>
      <cc:Work
         rdf:about="">
        <dc:format>image/svg+xml</dc:format>
        <dc:type
           rdf:resource="http://purl.org/dc/dcmitype/StillImage" />
        <dc:title></dc:title>
      </cc:Work>
    </rdf:RDF>
  </metadata>
  <g
     transform="translate(0,-280.06665)"
     id="layer1">
    <rect
       ry="2.4883411"
       y="280.59583"
       x="0.52916676"
       height="15.875"
       width="15.875"
       id="rect3746"
       style="fill:#000000;stroke:none;stroke-width:0.26458335" />
    <g
       style="fill:#ffffff;stroke:#ffffff"
       transform="translate(0.60107602,-0.40836325)"
       id="g3740">
      <path
         id="path24"
         style="font-style:normal;font-variant:normal;font-weight:normal;font-stretch:normal;font-size:10.58333302px;line-height:1.25;font-family:serif;-inkscape-font-specification:serif;letter-spacing:0px;word-spacing:0px;fill:#ffffff;fill-opacity:1;stroke:#ffffff;stroke-width:0.26458332"
         d="m 2.7824812,292.25156 h 0.9818522 v 0.54777 H 0.75159745 v -0.54777 H 1.7334496 v -6.61459 H 0.75159745 v -0.55294 H 3.7643334 v 0.55294 H 2.7824812 Z" />
      <path
         id="path26"
         style="font-style:normal;font-weight:normal;font-size:10.58333302px;line-height:1.25;font-family:sans-serif;letter-spacing:0px;word-spacing:0px;fill:#ffffff;fill-opacity:1;stroke:#ffffff;stroke-width:0.26458332"
         d="m 5.3980409,291.32654 q 0.7648112,0 1.1523844,-0.6046 0.3927409,-0.60462 0.3927409,-1.78285 0,-1.17822 -0.3927409,-1.77767 -0.3875732,-0.6046 -1.1523844,-0.6046 -0.7648112,0 -1.1575521,0.6046 -0.3875732,0.59945 -0.3875732,1.77767 0,1.17823 0.3927409,1.78285 0.3927409,0.6046 1.1523844,0.6046 z m 0,0.5116 q -1.1988932,0 -1.9275309,-0.79065 -0.7286377,-0.79582 -0.7286377,-2.1084 0,-1.31258 0.7234701,-2.10323 0.7286377,-0.79065 1.9326985,-0.79065 1.2040608,0 1.9275309,0.79065 0.7286376,0.79065 0.7286376,2.10323 0,1.31258 -0.7286376,2.1084 -0.7234701,0.79065 -1.9275309,0.79065 z" />
      <path
         id="path28"
         style="font-style:normal;font-variant:normal;font-weight:normal;font-stretch:normal;font-size:10.58333302px;line-height:1.25;font-family:serif;-inkscape-font-specification:serif;letter-spacing:0px;word-spacing:0px;fill:#ffffff;fill-opacity:1;stroke:#ffffff;stroke-width:0.26458332"
         d="m 8.0187685,285.56204 h -0.98702 v -0.55294 h 3.0179035 v 0.55294 H 9.0626315 v 3.98942 q 0,1.47795 0.480591,2.06189 0.4857595,0.58395 1.6691495,0.58395 1.18339,0 1.663981,-0.58395 0.485758,-0.58394 0.485758,-2.06189 v -3.98942 h -0.987019 v -0.55294 h 2.604492 v 0.55294 h -0.981852 v 4.09278 q 0,1.76216 -0.676962,2.4908 -0.676961,0.72864 -2.299601,0.72864 -1.6226405,0 -2.3151045,-0.73381 -0.687296,-0.7338 -0.687296,-2.48563 z" />
    </g>
  </g>
</svg>
